<svg width="29" height="29" viewBox="0 0 29 29" fill="none" xmlns="http://www.w3.org/2000/svg">
<g clip-path="url(#clip0_3_95)">
<path d="M21.0008 13.0379C19.2608 16.4575 16.4575 19.2487 13.0379 21.0008L10.3796 18.3425C10.0533 18.0163 9.57 17.9075 9.14708 18.0525C7.79375 18.4996 6.33167 18.7413 4.83333 18.7413C4.16875 18.7413 3.625 19.285 3.625 19.9496V24.1667C3.625 24.8313 4.16875 25.375 4.83333 25.375C16.1796 25.375 25.375 16.1796 25.375 4.83333C25.375 4.16875 24.8313 3.625 24.1667 3.625H19.9375C19.2729 3.625 18.7292 4.16875 18.7292 4.83333C18.7292 6.34375 18.4875 7.79375 18.0404 9.14708C17.9075 9.57 18.0042 10.0413 18.3425 10.3796L21.0008 13.0379Z" fill="#0275CA"/>
</g>
<defs>
<clipPath id="clip0_3_95">
<rect width="29" height="29" fill="white" transform="matrix(-1 0 0 1 29 0)"/>
</clipPath>
</defs>
</svg>
